<svg width="22" height="19" viewBox="0 0 22 19" fill="none" xmlns="http://www.w3.org/2000/svg">
<path d="M21.0931 7.64732H1.51241C1.03111 7.64732 0.638153 8.36652 0.638153 9.25446V9.50357C0.638153 10.3902 1.03111 11.1107 1.51241 11.1107H21.0931C21.5744 11.1107 21.9658 10.3915 21.9658 9.50357V9.25446C21.9658 8.36919 21.5744 7.64732 21.0931 7.64732Z" fill="white"/>
<path d="M13.269 17.9866L13.269 0.76875C13.269 0.345536 12.4511 0 11.4413 0L11.158 0C10.1497 0 9.33033 0.345536 9.33033 0.76875L9.33033 17.9866C9.33033 18.4098 10.1482 18.754 11.158 18.754H11.4413C12.4511 18.75 13.269 18.4098 13.269 17.9866Z" fill="white"/>
</svg>
