<svg width="48" height="48" viewBox="0 0 48 48" fill="none" xmlns="http://www.w3.org/2000/svg">
<rect width="48" height="48" rx="20" fill="#5AB4C5"/>
<path d="M30.467 27.236C31.7339 27.236 32.761 26.209 32.761 24.942C32.761 23.6751 31.7339 22.648 30.467 22.648C29.2 22.648 28.173 23.6751 28.173 24.942C28.173 26.209 29.2 27.236 30.467 27.236Z" stroke="white" stroke-width="1.8" stroke-linecap="round" stroke-linejoin="round"/>
<path d="M31.791 29.705C32.2546 29.7049 32.7137 29.7961 33.142 29.9734C33.5703 30.1508 33.9595 30.4108 34.2874 30.7386C34.6152 31.0664 34.8752 31.4556 35.0525 31.884C35.2299 32.3123 35.3211 32.7714 35.321 33.235V35H25.613V33.235C25.6128 32.7714 25.7041 32.3123 25.8814 31.884C26.0588 31.4556 26.3188 31.0664 26.6466 30.7386C26.9744 30.4108 27.3636 30.1508 27.7919 29.9734C28.2203 29.7961 28.6794 29.7049 29.143 29.705H31.791Z" stroke="white" stroke-width="1.8" stroke-linecap="round" stroke-linejoin="round"/>
<path d="M29.151 12.719H33.1744V16.8279" stroke="white" stroke-width="1.8" stroke-linecap="round"/>
<mask id="mask0_17_715" style="mask-type:luminance" maskUnits="userSpaceOnUse" x="11" y="12" width="24" height="11">
<path d="M11.001 12.212H34.085V22.082H11.001V12.212Z" fill="white"/>
</mask>
<g mask="url(#mask0_17_715)">
<path d="M11.901 22.082C11.7165 22.0821 11.5365 22.0256 11.3853 21.92C11.2341 21.8145 11.1189 21.665 11.0554 21.4919C10.9919 21.3187 10.9831 21.1302 11.0303 20.9519C11.0774 20.7736 11.1782 20.6141 11.319 20.495L16.778 15.866C16.9401 15.7282 17.1317 15.6296 17.3381 15.5776C17.5444 15.5255 17.7599 15.5216 17.968 15.566L25.879 17.258C26.0831 17.3019 26.2945 17.2991 26.4974 17.2499C26.7003 17.2008 26.8895 17.1064 27.051 16.974L32.615 12.412C32.8006 12.2608 33.0387 12.1896 33.2769 12.214C33.5151 12.2383 33.7338 12.3563 33.885 12.542C34.0361 12.7276 34.1074 12.9657 34.083 13.2039C34.0586 13.4421 33.9406 13.6608 33.755 13.812L27.522 18.912C27.3604 19.0442 27.1712 19.1384 26.9683 19.1876C26.7655 19.2368 26.5541 19.2396 26.35 19.196L18.456 17.512C18.2479 17.4677 18.0324 17.4717 17.8261 17.5237C17.6198 17.5757 17.4282 17.6743 17.266 17.812L12.483 21.868C12.3207 22.0065 12.1143 22.0824 11.901 22.082Z" fill="white"/>
</g>
<path d="M13.3422 28.684V34.9989" stroke="white" stroke-width="1.8" stroke-linecap="round"/>
<path d="M17.5222 26.422V34.9989" stroke="white" stroke-width="1.8" stroke-linecap="round"/>
<path d="M21.7001 22.647V34.999" stroke="white" stroke-width="1.8" stroke-linecap="round"/>
</svg>
