<svg width="39" height="39" viewBox="0 0 39 39" fill="none" xmlns="http://www.w3.org/2000/svg">
<g clip-path="url(#clip0_88_926)">
<rect width="39" height="39" rx="19.5" fill="#5AB4C5"/>
<path d="M29.3182 19.9534L29.3109 19.8786C29.2045 18.793 29.103 17.707 29.0062 16.6205C28.979 16.422 28.8812 16.2399 28.7309 16.1075C28.5806 15.975 28.3876 15.901 28.1873 15.899H25.6108C25.3927 15.899 25.1836 15.9856 25.0294 16.1398C24.8752 16.294 24.7886 16.5032 24.7886 16.7213C24.7886 16.9393 24.8752 17.1485 25.0294 17.3027C25.1836 17.4569 25.3927 17.5435 25.6108 17.5435H27.4487L27.5998 19.3838H24.9364C24.8263 19.3804 24.7167 19.399 24.6139 19.4388C24.5112 19.4785 24.4175 19.5385 24.3384 19.6152C24.2593 19.6918 24.1964 19.7836 24.1534 19.885C24.1105 19.9865 24.0883 20.0955 24.0883 20.2057C24.0883 20.3158 24.1105 20.4248 24.1534 20.5263C24.1964 20.6277 24.2593 20.7195 24.3384 20.7961C24.4175 20.8728 24.5112 20.9328 24.6139 20.9725C24.7167 21.0123 24.8263 21.031 24.9364 21.0275H27.7461L27.8915 22.6038H24.0581L23.257 21.4191C23.1415 21.2418 22.961 21.117 22.7543 21.0714C22.5477 21.0258 22.3314 21.0631 22.152 21.1754C22.0584 21.2298 21.9766 21.3024 21.9114 21.3889C21.8463 21.4754 21.7991 21.574 21.7726 21.679C21.7461 21.784 21.7409 21.8932 21.7572 22.0002C21.7735 22.1073 21.811 22.21 21.8676 22.3023C22.2433 22.8964 22.6293 23.484 23.0254 24.0646C23.4762 24.731 23.9169 25.404 24.3474 26.0837H16.7367L15.5699 24.0524L17.2559 23.1896L17.3371 23.1173C17.4085 23.0392 17.4639 22.9479 17.5 22.8485C17.5361 22.7491 17.5522 22.6435 17.5474 22.5379C17.5427 22.4322 17.5171 22.3285 17.4723 22.2328C17.4274 22.137 17.3641 22.051 17.2859 21.9798C17.1358 21.8495 16.9454 21.775 16.7467 21.7689C16.548 21.7629 16.3533 21.8256 16.1956 21.9464L14.7233 22.6241L11.8089 17.5411H13.4615C13.6796 17.5411 13.8887 17.4544 14.0429 17.3002C14.1971 17.146 14.2837 16.9369 14.2837 16.7188C14.2837 16.5007 14.1971 16.2916 14.0429 16.1374C13.8887 15.9832 13.6796 15.8966 13.4615 15.8966H10.4089C10.1973 15.8939 9.99287 15.9731 9.83817 16.1175C9.68348 16.2619 9.59048 16.4604 9.57856 16.6717L9.022 26.8572C9.01495 26.9654 9.02941 27.074 9.06455 27.1767C9.0997 27.2793 9.15482 27.374 9.22675 27.4552C9.30148 27.5383 9.3921 27.6057 9.49327 27.6533C9.59444 27.7009 9.7041 27.7277 9.81581 27.7323H29.1078C29.3215 27.7219 29.5226 27.6284 29.6682 27.4717C29.8138 27.315 29.8923 27.1076 29.887 26.8938C29.7684 24.6326 29.5392 22.2544 29.3182 19.9542M28.1897 26.0878H26.2917L25.1217 24.2474H28.0345L28.1897 26.0878ZM14.8509 26.0878H10.7429L11.0321 19.4594L14.8509 26.0878Z" fill="white"/>
<path d="M23.0343 9.15931C22.02 8.18343 20.6673 7.63829 19.2598 7.63829C17.8523 7.63829 16.4995 8.18343 15.4853 9.15931C14.9824 9.64322 14.5823 10.2237 14.3091 10.8659C14.0359 11.5081 13.8951 12.1989 13.8953 12.8968C14.0549 14.2473 14.5132 15.5454 15.2367 16.6969C16.2126 18.4448 17.3407 20.1033 18.6078 21.6531L18.7061 21.749C18.8764 21.89 19.0954 21.9583 19.3157 21.9391C19.536 21.92 19.7399 21.8149 19.8834 21.6466C20.8608 20.4664 21.755 19.2197 22.5598 17.9156C22.8718 17.4078 23.0798 17.0552 23.2748 16.7066C24.0062 15.5411 24.4681 14.227 24.6268 12.8602C24.6223 12.1684 24.4792 11.4844 24.206 10.8487C23.9327 10.2131 23.5349 9.63862 23.0359 9.15931M22.9546 12.8326C22.8055 13.9265 22.4153 14.9735 21.8123 15.8982C21.0509 17.2582 20.1926 18.5615 19.244 19.7982C18.3108 18.5489 17.4584 17.2414 16.6919 15.8836C16.0979 14.9722 15.7113 13.9415 15.5593 12.8643C15.5659 11.9184 15.9454 11.0133 16.6155 10.3456C17.3242 9.67939 18.2608 9.30937 19.2334 9.31125H19.2699C20.2349 9.30888 21.1633 9.6798 21.861 10.3464C22.199 10.6676 22.4696 11.0528 22.6571 11.4797C22.8445 11.9065 22.9452 12.3665 22.953 12.8326" fill="white"/>
<path d="M19.2131 10.6535V10.7583L19.2074 10.6535C18.6597 10.67 18.138 10.8908 17.7449 11.2726C17.3612 11.6608 17.1471 12.1853 17.1497 12.7311C17.1523 13.2769 17.3713 13.7993 17.7587 14.1838C18.1526 14.5626 18.6749 14.7787 19.2212 14.7891C19.7732 14.7839 20.301 14.5615 20.6902 14.17C21.0741 13.7827 21.2885 13.2589 21.2864 12.7137C21.2842 12.1684 21.0657 11.6463 20.6788 11.2621C20.2921 10.8751 19.7683 10.6564 19.2212 10.6535M19.9354 12.7237C19.9356 12.8124 19.9182 12.9002 19.8842 12.9821C19.8501 13.064 19.8002 13.1383 19.7371 13.2007C19.597 13.3329 19.4122 13.4074 19.2196 13.4095C19.0364 13.4095 18.8608 13.3367 18.7312 13.2072C18.6017 13.0777 18.529 12.902 18.529 12.7189C18.529 12.5357 18.6017 12.36 18.7312 12.2305C18.8608 12.101 19.0364 12.0282 19.2196 12.0282C19.4129 12.0306 19.5983 12.1051 19.7396 12.2371L19.7518 12.2484C19.8726 12.3758 19.9393 12.545 19.9378 12.7205" fill="white"/>
</g>
<defs>
<clipPath id="clip0_88_926">
<rect width="39" height="39" rx="19.5" fill="white"/>
</clipPath>
</defs>
</svg>
