<svg width="56" height="56" viewBox="0 0 56 56" fill="none" xmlns="http://www.w3.org/2000/svg">
<g clip-path="url(#clip0_17_681)">
<path fill-rule="evenodd" clip-rule="evenodd" d="M49.0004 28C49.0004 37.665 39.9902 45.5 28.8754 45.5C25.7957 45.5 22.8775 44.8984 20.2678 43.8231L14.9187 47.1091C14.2134 47.5424 13.317 46.98 13.4004 46.1563L14.0409 39.826C10.7556 36.7115 8.75043 32.5594 8.75043 28C8.75043 18.335 17.7607 10.5 28.8754 10.5C39.9902 10.5 49.0004 18.335 49.0004 28Z" fill="#B4E2EA"/>
<path d="M18.375 29.75C19.8247 29.75 21 28.5747 21 27.125C21 25.6753 19.8247 24.5 18.375 24.5C16.9253 24.5 15.75 25.6753 15.75 27.125C15.75 28.5747 16.9253 29.75 18.375 29.75Z" fill="#5AB4C5"/>
<path d="M28.875 31.5C30.3247 31.5 31.5 30.3247 31.5 28.875C31.5 27.4253 30.3247 26.25 28.875 26.25C27.4253 26.25 26.25 27.4253 26.25 28.875C26.25 30.3247 27.4253 31.5 28.875 31.5Z" fill="#5AB4C5"/>
<path d="M39.375 33.25C40.8247 33.25 42 32.0747 42 30.625C42 29.1753 40.8247 28 39.375 28C37.9253 28 36.75 29.1753 36.75 30.625C36.75 32.0747 37.9253 33.25 39.375 33.25Z" fill="#71C5D5"/>
</g>
<defs>
<clipPath id="clip0_17_681">
<rect width="56" height="56" rx="20" fill="white"/>
</clipPath>
</defs>
</svg>
