<svg width="45" height="45" viewBox="0 0 45 45" fill="none" xmlns="http://www.w3.org/2000/svg">
<path d="M14.1532 2.90323H15.5715C15.9472 2.90323 16.3075 3.04286 16.5732 3.29141C16.8389 3.53995 16.9882 3.87705 16.9882 4.22855V30.2124C16.9882 30.5639 16.8389 30.901 16.5732 31.1496C16.3075 31.3981 15.9472 31.5377 15.5715 31.5377H14.1532C13.7774 31.5377 13.4171 31.3981 13.1514 31.1496C12.8857 30.901 12.7365 30.5639 12.7365 30.2124V4.22855C12.7365 3.87705 12.8857 3.53995 13.1514 3.29141C13.4171 3.04286 13.7774 2.90323 14.1532 2.90323Z" fill="#468D9B"/>
<path d="M22.2315 17.2234H23.6498C24.0256 17.2234 24.3859 17.363 24.6516 17.6116C24.9173 17.8601 25.0665 18.1972 25.0665 18.5487V30.2182C25.0665 30.5697 24.9173 30.9068 24.6516 31.1554C24.3859 31.4039 24.0256 31.5435 23.6498 31.5435H22.2315C21.8558 31.5435 21.4955 31.4039 21.2298 31.1554C20.9641 30.9068 20.8148 30.5697 20.8148 30.2182V18.5487C20.8148 18.1972 20.9641 17.8601 21.2298 17.6116C21.4955 17.363 21.8558 17.2234 22.2315 17.2234Z" fill="#475259"/>
<path d="M6.0734 17.2234H7.49168C7.86742 17.2234 8.22777 17.363 8.49345 17.6116C8.75914 17.8601 8.9084 18.1972 8.9084 18.5487V30.2182C8.9084 30.5697 8.75914 30.9068 8.49345 31.1554C8.22777 31.4039 7.86742 31.5435 7.49168 31.5435H6.0734C5.69766 31.5435 5.33731 31.4039 5.07163 31.1554C4.80594 30.9068 4.65668 30.5697 4.65668 30.2182V18.5487C4.65668 18.1972 4.80594 17.8601 5.07163 17.6116C5.33731 17.363 5.69766 17.2234 6.0734 17.2234Z" fill="#475259"/>
<path d="M30.3113 10.8595H31.7296C32.1053 10.8595 32.4657 10.9992 32.7314 11.2477C32.9971 11.4962 33.1463 11.8333 33.1463 12.1848V30.2197C33.1463 30.5712 32.9971 30.9083 32.7314 31.1568C32.4657 31.4054 32.1053 31.545 31.7296 31.545H30.3113C29.9356 31.545 29.5752 31.4054 29.3095 31.1568C29.0439 30.9083 28.8946 30.5712 28.8946 30.2197V12.1848C28.8946 11.8333 29.0439 11.4962 29.3095 11.2477C29.5752 10.9992 29.9356 10.8595 30.3113 10.8595Z" fill="#475259"/>
<path d="M41.2774 37.7724C41.6879 37.3869 41.9184 36.8649 41.9184 36.3208C41.9184 35.7767 41.6879 35.2547 41.2774 34.8692L38.2283 32.0168C37.9013 31.759 37.4829 31.6254 37.0557 31.6425C36.6285 31.6595 36.2237 31.8259 35.9214 32.1087C35.619 32.3915 35.4412 32.7702 35.423 33.1698C35.4048 33.5695 35.5476 33.9609 35.8231 34.2668L36.3088 34.7211H4.60552C4.19041 34.7709 3.80892 34.9605 3.53244 35.2544C3.25597 35.5483 3.10345 35.9264 3.10345 36.3179C3.10345 36.7094 3.25597 37.0875 3.53244 37.3814C3.80892 37.6753 4.19041 37.8649 4.60552 37.9147H40.9159C40.9833 37.915 41.0501 37.9026 41.1122 37.8781C41.1743 37.8537 41.2305 37.8177 41.2774 37.7724Z" fill="#475259"/>
</svg>
